<svg width="32" height="33" viewBox="0 0 32 33" fill="none" xmlns="http://www.w3.org/2000/svg">
<rect x="0.5" y="1" width="31" height="31" rx="7.5" fill="#73C3FD"/>
<rect x="0.5" y="1" width="31" height="31" rx="7.5" stroke="#73C3FD"/>
<path d="M22.68 8.16406C21.7525 8.16406 21 10.4024 21 13.1641H22.68C23.49 13.1641 23.8942 13.1641 24.145 12.8849C24.395 12.6049 24.3517 12.2366 24.265 11.5007C24.0333 9.55573 23.4117 8.16406 22.68 8.16406Z" stroke="white" stroke-width="1.5" stroke-linecap="round" stroke-linejoin="round"/>
<path d="M20.9998 13.2091V22.0357C20.9998 23.2949 20.9998 23.9249 20.6148 24.1732C19.9857 24.5782 19.0132 23.7282 18.524 23.4199C18.1198 23.1649 17.9182 23.0382 17.694 23.0307C17.4515 23.0224 17.2457 23.1449 16.809 23.4199L15.2165 24.4241C14.7865 24.6949 14.5723 24.8307 14.3332 24.8307C14.094 24.8307 13.879 24.6949 13.4498 24.4241L11.8582 23.4199C11.4532 23.1649 11.2515 23.0382 11.0273 23.0307C10.7848 23.0224 10.579 23.1449 10.1423 23.4199C9.65317 23.7282 8.68067 24.5782 8.05067 24.1732C7.6665 23.9249 7.6665 23.2957 7.6665 22.0357V13.2091C7.6665 10.8307 7.6665 9.6424 8.399 8.90323C9.13067 8.16406 10.3098 8.16406 12.6665 8.16406H22.6665M10.9998 11.4974H17.6665M12.6665 14.8307H10.9998" stroke="white" stroke-width="1.5" stroke-linecap="round" stroke-linejoin="round"/>
<path d="M16.4165 15.5573C15.7265 15.5573 15.1665 16.0473 15.1665 16.6515C15.1665 17.2548 15.7265 17.7448 16.4165 17.7448C17.1065 17.7448 17.6665 18.2348 17.6665 18.839C17.6665 19.4423 17.1065 19.9323 16.4165 19.9323M16.4165 15.5573C16.9607 15.5573 17.424 15.8615 17.5957 16.2865M16.4165 15.5573V14.8281M16.4165 19.9323C15.8723 19.9323 15.409 19.6281 15.2373 19.2031M16.4165 19.9323V20.6615" stroke="white" stroke-width="1.5" stroke-linecap="round" stroke-linejoin="round"/>
</svg>
