<svg width="32" height="33" viewBox="0 0 32 33" fill="none" xmlns="http://www.w3.org/2000/svg">
<g filter="url(#filter0_i_7643_7393)">
<rect y="0.5" width="32" height="32" rx="8" fill="#4CB528"/>
<rect x="0.5" y="1" width="31" height="31" rx="7.5" stroke="#4CB528"/>
<path d="M13.4999 15.6693L15.9999 18.1693L22.6666 11.5026M22.6666 16.5026V21.5026C22.6666 21.9446 22.491 22.3686 22.1784 22.6811C21.8659 22.9937 21.4419 23.1693 20.9999 23.1693H10.9999C10.5579 23.1693 10.134 22.9937 9.82141 22.6811C9.50885 22.3686 9.33325 21.9446 9.33325 21.5026V11.5026C9.33325 11.0606 9.50885 10.6367 9.82141 10.3241C10.134 10.0115 10.5579 9.83594 10.9999 9.83594H18.4999" stroke="white" stroke-width="1.5" stroke-linecap="round" stroke-linejoin="round"/>
</g>
<defs>
<filter id="filter0_i_7643_7393" x="0" y="0.5" width="32" height="32" filterUnits="userSpaceOnUse" color-interpolation-filters="sRGB">
<feFlood flood-opacity="0" result="BackgroundImageFix"/>
<feBlend mode="normal" in="SourceGraphic" in2="BackgroundImageFix" result="shape"/>
<feColorMatrix in="SourceAlpha" type="matrix" values="0 0 0 0 0 0 0 0 0 0 0 0 0 0 0 0 0 0 127 0" result="hardAlpha"/>
<feOffset/>
<feGaussianBlur stdDeviation="2"/>
<feComposite in2="hardAlpha" operator="arithmetic" k2="-1" k3="1"/>
<feColorMatrix type="matrix" values="0 0 0 0 0.835294 0 0 0 0 0.8 0 0 0 0 0.992157 0 0 0 1 0"/>
<feBlend mode="normal" in2="shape" result="effect1_innerShadow_7643_7393"/>
</filter>
</defs>
</svg>
