<svg width="36" height="36" viewBox="0 0 36 36" fill="none" xmlns="http://www.w3.org/2000/svg">
<path d="M4.5 28.5C9.4995 25.5 12 22.5 12 19.5C12 15 10.5 15 9 15C7.5 15 5.952 16.6275 6 19.5C6.051 22.572 8.487 23.8155 9.75 25.5C12 28.5 13.5 29.25 15 27C16.0005 25.5 16.7505 24.2505 17.25 23.25C18.75 26.7495 20.7495 28.5 23.25 28.5H27M27 28.5L24 25.5V7.5C24 5.8185 25.3185 4.5 27 4.5C28.6815 4.5 30 5.8185 30 7.5V25.5L27 28.5ZM24 10.5H30" stroke="#307FF4" stroke-width="2" stroke-linecap="round" stroke-linejoin="round"/>
</svg>
