<svg width="77" height="27" viewBox="0 0 77 27" fill="none" xmlns="http://www.w3.org/2000/svg">
<path d="M24.0331 5.09751L26.6895 1.38642L23.376 4.34129C20.9154 1.6805 17.3922 0 13.4776 0C6.03975 0 0 6.0498 0 13.5C0 20.9642 6.03975 27 13.4776 27C20.9294 27 26.9551 20.9502 26.9551 13.5C26.9691 10.3211 25.8646 7.40819 24.0331 5.09751ZM22.8587 17.9673C22.8587 20.6982 20.6498 22.8968 17.9375 22.8968H9.03163C6.30541 22.8968 4.11038 20.6842 4.11038 17.9673V9.04667C4.11038 6.31585 6.31935 4.11722 9.03163 4.11722H17.9375C19.4474 4.11722 20.7896 4.78942 21.6843 5.85374L13.4356 13.2339L7.82929 9.42479L11.8838 17.2391C11.9117 17.2811 11.9397 17.3231 11.9816 17.3652C11.9956 17.3932 12.0096 17.4071 12.0236 17.4352C12.0655 17.4912 12.0935 17.5472 12.1494 17.5892C12.1914 17.6313 12.2333 17.6592 12.2752 17.7013C12.7925 18.1634 13.4776 18.3174 14.1207 18.1634H14.1347C14.2465 18.1354 14.3584 18.0934 14.4702 18.0374C14.4842 18.0234 14.4982 18.0234 14.5262 18.0094C14.624 17.9673 14.7079 17.9113 14.8058 17.8413C14.8337 17.8273 14.8617 17.7993 14.8896 17.7853C14.9316 17.7573 14.9875 17.7292 15.0295 17.6873C15.0574 17.6592 15.0854 17.6173 15.1134 17.5892C15.1273 17.5752 15.1413 17.5612 15.1553 17.5472L15.1972 17.4912C15.2531 17.4212 15.3091 17.3512 15.351 17.2811L22.5092 7.22612C22.7329 7.78631 22.8587 8.40247 22.8587 9.04667V17.9673Z" fill="white"/>
<path d="M41.2685 23.2551C35.5867 23.2551 31.7773 19.4129 31.7773 13.7115C31.7773 8.09281 35.6771 4.16797 41.2685 4.16797C44.9616 4.16797 46.8598 5.66905 47.3505 6.12351L46.2142 9.24961C45.4781 8.60236 43.6961 7.47308 41.5138 7.47308C38.0143 7.47308 35.6642 9.95195 35.6642 13.6426C35.6642 17.2508 38.066 19.7847 41.5138 19.7847C43.9931 19.7847 45.5944 18.7381 46.4337 17.9669L47.6604 20.914C46.098 22.4426 43.9415 23.2551 41.2685 23.2551Z" fill="white"/>
<path d="M53.1898 4.42969H49.4062V22.9246H53.1898V4.42969Z" fill="white"/>
<path d="M56.0392 22.9082V9.86674H59.8228V22.922H56.0392V22.9082ZM57.9374 7.7322C56.6074 7.7322 55.7422 6.94718 55.7422 5.72156C55.7422 4.52344 56.6203 3.71094 57.9374 3.71094C59.2414 3.71094 60.1327 4.52344 60.1327 5.72156C60.1199 6.93342 59.2676 7.7322 57.9374 7.7322Z" fill="white"/>
<path d="M68.94 23.2272C64.6786 23.2272 61.8125 20.5004 61.8125 16.4379C61.8125 12.3616 64.6786 9.62109 68.94 9.62109C73.1885 9.62109 76.0424 12.3616 76.0424 16.4379C76.0296 20.5004 73.1757 23.2272 68.94 23.2272ZM68.94 12.5406C66.9774 12.5406 65.6602 14.0692 65.6602 16.3553C65.6602 18.6413 66.9774 20.1699 68.94 20.1699C70.9032 20.1699 72.2203 18.6413 72.2203 16.3553C72.2203 14.0692 70.9032 12.5406 68.94 12.5406Z" fill="white"/>
</svg>
